
<svg width="595.28" height="550" xmlns="http://www.w3.org/2000/svg">
    <style type="text/css">.st0{fill:#FFFFFF;}</style>

    <g>
        <title>background</title>
        <rect fill="none" id="canvas_background" height="552" width="597.28" y="-1" x="-1"/>
    </g>
    <g>
        <title>Layer 1</title>
        <path stroke="null" d="m557.095094,220.322999l-223.900129,-188.200883c-21.31557,-18.369515 -52.855681,-18.369515 -74.17125,0l-226.846183,188.200883c-8.318271,6.931893 -9.531352,19.236002 -2.59946,27.554273c3.639244,4.332433 9.01146,6.931893 14.730272,7.10519c4.679027,0 9.184758,-1.732973 12.650704,-4.679027l6.931893,-5.718811l0,214.022182c-1.386379,42.111247 31.713408,77.463899 73.824656,79.023575l314.361327,0c42.284545,-1.559676 75.211034,-36.73903 73.997953,-79.023575l0,-213.675588l5.718811,4.679027c3.985838,3.119352 8.838163,4.679027 13.863785,4.50573c10.744433,0 19.409299,-8.664866 19.582596,-19.409299c-1.039784,-5.545514 -3.812541,-10.571136 -8.144974,-14.383677zm-301.017434,278.66208l0,-133.785526c0.173297,-10.744433 8.838163,-19.236002 19.582596,-19.409299l38.472004,0c10.744433,0 19.409299,8.664866 19.409299,19.409299l0,134.478715l-77.463899,-0.693189zm231.525211,-40.031679c0.866487,21.31557 -15.423461,39.33849 -36.73903,40.551571l-79.196872,0l0,-134.305418c-0.346595,-31.886706 -26.167894,-57.534708 -58.0546,-57.708005l-38.472004,0c-31.886706,0 -57.881303,25.8213 -58.0546,57.708005l0,134.478715l-78.67698,0c-21.31557,-1.213081 -37.605517,-19.236002 -36.73903,-40.551571l0,-246.082185l181.442287,-151.115257c7.451784,-5.718811 17.849623,-5.718811 25.301408,0l179.189422,149.902176l0,247.121969l0,0z" class="st0" id="路径_4736"/>
    </g>
</svg>
