<svg width="595.28" height="550" xmlns="http://www.w3.org/2000/svg">
	<style type="text/css">.st0{fill:#FFFFFF;}</style>

	<g>
		<title>background</title>
		<rect x="-1" y="-1" width="597.28" height="552" id="canvas_background" fill="none"/>
	</g>
	<g>
		<title>Layer 1</title>
		<g id="组_965" stroke="null">
			<path id="路径_4737" class="st0" d="m296.38909,548.848428c-139.655586,0 -252.99925,-113.343664 -252.99925,-252.99925s113.343664,-252.99925 252.99925,-252.99925s252.99925,113.343664 252.99925,252.99925c0.505999,139.318254 -111.994335,252.493252 -251.312588,252.99925c-0.505999,0 -1.180663,0 -1.686662,0zm0,-467.205282c-118.740981,0.337332 -214.71203,96.983046 -214.374698,215.724027c0.337332,118.740981 96.983046,214.71203 215.724027,214.374698c118.572315,-0.337332 214.543364,-96.645714 214.374698,-215.218029c0,-118.740981 -96.139715,-214.880696 -214.880696,-214.880696c-0.337332,0 -0.674665,0 -0.843331,0z" stroke="null"/>
			<path id="路径_4738" class="st0" d="m390.167478,318.787777l-74.887778,0l0,-37.275223l74.887778,0c10.457302,0 18.890611,-8.433308 18.890611,-18.890611c0,-10.457302 -8.433308,-18.890611 -18.890611,-18.890611c0,0 0,0 -0.168666,0l-52.455178,0l51.443181,-50.59985c7.083979,-7.421311 6.577981,-19.227943 -0.843331,-26.143256c-7.252645,-6.746647 -18.384612,-6.746647 -25.468591,0l-66.45447,66.285804l-66.623136,-66.285804c-7.421311,-7.083979 -19.227943,-6.746647 -26.311922,0.674665c-6.746647,7.083979 -6.746647,18.384612 0,25.468591l50.59985,50.59985l-52.455178,0c-10.457302,0 -18.890611,8.433308 -18.890611,18.890611c0,10.457302 8.433308,18.890611 18.890611,18.890611c0,0 0,0 0.168666,0l74.887778,0l0,37.275223l-74.887778,0c-10.457302,-1.011997 -19.733942,6.746647 -20.745939,17.203949c-1.011997,10.457302 6.746647,19.733942 17.203949,20.745939c1.180663,0.168666 2.361326,0.168666 3.54199,0l74.887778,0l0,74.550446c-1.011997,10.457302 6.746647,19.733942 17.203949,20.745939c10.457302,1.011997 19.733942,-6.746647 20.745939,-17.203949c0.168666,-1.180663 0.168666,-2.361326 0,-3.54199l0,-74.550446l74.887778,0c10.625969,0.674665 19.733942,-7.421311 20.408606,-18.04728c0,-0.505999 0,-0.843331 0,-1.349329c-0.505999,-10.457302 -9.107973,-18.721945 -19.565275,-18.553278l0,-0.000001z" stroke="null"/>
		</g>
	</g>
</svg>
