<svg xmlns="http://www.w3.org/2000/svg" width="205.406" height="199.62" viewBox="0 0 205.406 199.62">
  <defs>
    <style>
      .cls-1 {
        fill-rule: evenodd;
        opacity: 0.05;
      }
    </style>
  </defs>
  <path id="形状_1140_拷贝" data-name="形状 1140 拷贝" class="cls-1" d="M807.68,8253.01l-1.473,6.94a24.112,24.112,0,0,1,16.508,15.88,24.857,24.857,0,0,1-4.66,23.31,30,30,0,0,0-1.51-2.6c-6.906-9.51-17.276-11.85-27.45-12.96-5.149-.56-9.7-1.07-13.853-1.56a24.655,24.655,0,0,1,16.908-21.79,31.3,31.3,0,0,0-8.842-61.07c-5.23-10.5-16.033-17.97-28.295-17.97a31.087,31.087,0,0,0-26.324,14.35l6.138,3.55a24.06,24.06,0,0,1,20.186-10.81,24.762,24.762,0,0,1,20.7,11.64c-0.974.22-1.959,0.32-2.927,0.63-11.193,3.64-16.609,12.79-20.8,22.14-2.144,4.78-4.011,8.87-5.773,12.7a24.629,24.629,0,0,1-15.46-22.82A31.254,31.254,0,0,0,670,8202.12a32.087,32.087,0,0,0-9.617,2.84A31.37,31.37,0,0,0,649.7,8253l5.272-4.73a24,24,0,0,1-4.042-22.57,24.264,24.264,0,0,1,12.56-14.37,24.692,24.692,0,0,1,4.892-1.76,29.3,29.3,0,0,0-.307,3c0,11.76,7.017,19.75,14.6,26.64,3.879,3.52,7.2,6.57,10.3,9.43a24.951,24.951,0,0,1-7.354,6.03,24.2,24.2,0,0,1-19.123,1.63,30.87,30.87,0,0,0-24.456,2.09,31.619,31.619,0,0,0-13.432,41.52,30.529,30.529,0,0,0,9.2,11.07,32.669,32.669,0,0,0-.28,9.99,31.313,31.313,0,0,0,42.343,25.01L677,8339.5a23.987,23.987,0,0,1-22.685-3.13,24.266,24.266,0,0,1-9.772-16.39,25.682,25.682,0,0,1-.163-5.2c0.92,0.39,1.786.88,2.754,1.2a27.441,27.441,0,0,0,8.511,1.37c7.727,0,14.755-3.28,21.309-7.03,4.547-2.61,8.466-4.83,12.143-6.89a24.91,24.91,0,0,1,3.458,8.86,24.332,24.332,0,0,1-4.362,18.71,31.191,31.191,0,0,0,42.929,44.16,32.235,32.235,0,0,0,9.531,3.41,32.7,32.7,0,0,0,5.632.5,31.32,31.32,0,0,0,31.217-33.08l-7.04.72a24.265,24.265,0,0,1-28.579,24.88,25.636,25.636,0,0,1-5.053-1.48c0.67-.77,1.451-1.38,2.061-2.22,6.913-9.53,5.927-20.13,3.831-30.14-1.072-5.14-1.965-9.56-2.791-13.71a24.794,24.794,0,0,1,9.481-.54,24.234,24.234,0,0,1,16.43,9.94,31,31,0,0,0,43.777,6.93,31.356,31.356,0,0,0,11.509-34.23c8.355-8.23,12.112-20.82,8.318-32.5a31.065,31.065,0,0,0-21.765-20.63m-19.344,37.62c7.962,0.87,16.935,2.43,22.482,10.08a25.572,25.572,0,0,1,1.876,3.24,23.684,23.684,0,0,1-5.783,2.93c-12.048,3.91-26.628-3.51-30.564-15.6-0.218-.67-0.282-1.36-0.444-2.04,3.779,0.44,7.863.9,12.433,1.39m-29.891-65.04c3.283-7.32,7.538-15.37,16.525-18.29a23.439,23.439,0,0,1,3.655-.78,23.5,23.5,0,0,1,.99,6.4c0,12.71-11.557,24.28-24.254,24.28-0.713,0-1.383-.15-2.083-0.21,1.593-3.48,3.274-7.18,5.167-11.4m-8.292,18.17a30.872,30.872,0,0,0,5.208.53c16.691,0,31.335-14.66,31.335-31.37a30.607,30.607,0,0,0-.736-6.55,24.753,24.753,0,0,1,19.575,16.52c3.678,11.35-1.139,25.91-15.575,30.6a31.764,31.764,0,0,0-21.777,27.67c-14.294-1.77-23.206-3.22-34.1-5.11,5.344-10.13,9.616-18.44,16.065-32.29m-50.733-55.48c11.922,0,24.254,9.08,24.254,24.29a31.753,31.753,0,0,0,19.552,29.28c-6.092,13.03-10.258,21.14-15.4,30.89-7.964-8.21-14.526-14.84-25.69-25.26a31.952,31.952,0,0,0-18.019-44.34,30.1,30.1,0,0,0-6.457-1.29,24.734,24.734,0,0,1,21.758-13.57m-11.988,45.68c-5.935-5.39-12.27-11.94-12.27-21.39a24.647,24.647,0,0,1,.388-3.7,23.213,23.213,0,0,1,6.382,1.01,25.206,25.206,0,0,1,15.572,30.61c-0.215.66-.565,1.27-0.838,1.92-2.813-2.6-5.808-5.34-9.234-8.45m-14,70.2c-6.953,4-15.129,8-24.107,5.08a24.624,24.624,0,0,1-3.4-1.49,23.359,23.359,0,0,1,2.943-5.79,25.132,25.132,0,0,1,33.879-5.37c0.568,0.41,1.038.93,1.568,1.39-3.333,1.88-6.868,3.88-10.88,6.18m17.39-9.83a30.948,30.948,0,0,0-3.914-3.48,32.2,32.2,0,0,0-43.768,6.94,30.193,30.193,0,0,0-3.211,5.74,23.737,23.737,0,0,1-4.935-6.69,24.527,24.527,0,0,1,10.409-32.21,23.908,23.908,0,0,1,18.911-1.59,31.219,31.219,0,0,0,24.653-2.12,31.818,31.818,0,0,0,9.185-7.47c10.515,9.85,16.93,16.33,24.6,24.23-10.248,5.04-18.569,9.24-31.932,16.65m8.463,74.76c-9.649-7.02-14.291-21.62-5.365-33.92a31.325,31.325,0,0,0,5.6-24.13,32.122,32.122,0,0,0-4.252-11.06c12.614-6.98,20.742-11.08,30.61-15.94,1.63,11.35,3.053,20.59,5.954,35.55a32.3,32.3,0,0,0-4.521,2.65,32.3,32.3,0,0,0-6.93,43.83,30.111,30.111,0,0,0,4.542,4.9,24.371,24.371,0,0,1-25.64-1.88m33.879-5.37a25.97,25.97,0,0,1-2.477,2.77,23.689,23.689,0,0,1-4.577-4.59,25.213,25.213,0,0,1,5.368-33.92c0.565-.41,1.205-0.7,1.8-1.06,0.753,3.75,1.565,7.74,2.509,12.27,1.641,7.85,2.925,16.87-2.626,24.53m72.291-29.08c-9.657,7.01-24.968,6.92-33.884-5.38a31.28,31.28,0,0,0-21.192-12.78,31.924,31.924,0,0,0-11.812.62c-2.716-14.11-4.107-23.14-5.68-34.07,11.305,1.96,20.466,3.46,35.621,5.32a31.223,31.223,0,0,0,1.11,5.12c4.194,12.92,17.184,21.57,30.417,21.57a29.109,29.109,0,0,0,9.068-1.43,29.673,29.673,0,0,0,6.058-2.77,24.466,24.466,0,0,1-9.706,23.8" transform="translate(-625.5 -8181.19)"/>
</svg>
