<svg width="500" height="480" xmlns="http://www.w3.org/2000/svg">
	<style type="text/css">.st0{fill:#FFFFFF;}</style>

	<g>
		<title>background</title>
		<rect fill="none" id="canvas_background" height="482" width="502" y="-1" x="-1"/>
	</g>
	<g>
		<title>Layer 1</title>
		<path stroke="null" d="m170.403916,458.211169l-104.423621,0c-9.141462,0.585991 -16.993743,-6.328704 -17.579734,-15.352968c0,0 0,0 0,-0.117198l0,-383.003809c-0.468793,-9.141462 6.445903,-16.876545 15.587364,-17.345338l71.490919,0c9.024264,-0.585991 16.876545,6.328704 17.462536,15.352968l0,157.866013c0,9.727453 -7.852281,17.579734 -17.579734,17.579734s-17.579734,-7.852281 -17.579734,-17.579734l0,-138.997098l-35.159468,0l0,346.437962l87.078283,0c9.024264,-0.468793 16.876545,6.445903 17.462536,15.470166l0,1.99237c0.703189,8.789867 -5.859911,16.407752 -14.649778,17.110941l-2.109568,0.585991zm277.642602,0l-382.066223,0c-9.141462,0.585991 -16.993743,-6.328704 -17.579734,-15.352968c0,0 0,0 0,-0.117198l0,-227.48176c0,-9.727453 7.852281,-17.579734 17.579734,-17.579734s17.579734,7.852281 17.579734,17.579734l0,207.792458l348.078737,0l0,-190.798715l-35.159468,0c-9.727453,0.234396 -17.814131,-7.500687 -18.048527,-17.110941c-0.234396,-9.727453 7.500687,-17.814131 17.110941,-18.048527l52.973599,0c9.024264,-0.585991 16.876545,6.328704 17.462536,15.352968l0,227.247364c0.585991,9.141462 -6.211506,17.110941 -15.352968,17.814131l-2.578361,0.703189zm-313.036467,-225.254994c-5.508317,0.351595 -10.899435,-2.343965 -13.946589,-6.914695c-5.742713,-7.500687 -4.453533,-18.165725 3.047154,-24.025637c0.117198,-0.117198 0.234396,-0.117198 0.351595,-0.234396l0,0l86.961085,-69.264153c5.508317,-3.98474 12.891805,-4.570731 18.986113,-1.523577c5.391118,3.28155 8.672669,9.141462 8.555471,15.470166l0,69.264153c0,9.727453 -7.852281,17.579734 -17.579734,17.579734s-17.579734,-7.852281 -17.579734,-17.579734l0,-32.932702l-58.599114,46.879291c-3.047154,1.875172 -6.563101,3.047154 -10.196246,3.28155l0,0zm86.961085,0c-5.508317,0.351595 -10.899435,-2.343965 -13.946589,-6.914695c-5.742713,-7.617885 -4.219136,-18.51732 3.398749,-24.260033l0,0l86.961085,-69.264153c5.625515,-3.98474 12.891805,-4.570731 19.103311,-1.523577c5.27392,3.398749 8.555471,9.141462 8.555471,15.470166l0,69.264153c0,9.727453 -7.852281,17.579734 -17.579734,17.579734s-17.579734,-7.852281 -17.579734,-17.579734l0,-32.932702l-58.599114,46.879291c-3.164352,1.875172 -6.563101,3.047154 -10.313444,3.28155l0,0zm87.078283,0c-5.625515,0.351595 -10.899435,-2.343965 -14.063787,-6.914695c-5.742713,-7.617885 -4.219136,-18.51732 3.398749,-24.260033l0,0l87.078283,-69.264153c5.508317,-3.98474 12.891805,-4.570731 18.986113,-1.523577c5.391118,3.28155 8.672669,9.141462 8.555471,15.470166l0,69.264153c0,9.727453 -7.852281,17.579734 -17.579734,17.579734s-17.579734,-7.852281 -17.579734,-17.579734l0,-32.932702l-58.599114,46.879291c-3.28155,1.875172 -6.797497,3.047154 -10.547841,3.398749l0.351595,-0.117198zm69.967342,225.254994l-243.537918,0c-9.024264,0.585991 -16.876545,-6.211506 -17.462536,-15.23577c0,-0.117198 0,-0.117198 0,-0.234396c-0.117198,-0.703189 -0.117198,-1.289181 0,-1.99237l0,-86.726689c-0.585991,-9.024264 6.211506,-16.759347 15.23577,-17.345338c0.117198,0 0.234396,0 0.234396,0l246.116279,0c9.024264,-0.585991 16.876545,6.328704 17.462536,15.352968l0,88.719059c0.585991,9.141462 -6.328704,16.876545 -15.470166,17.462536l-1.99237,0l-0.585991,0zm-226.075382,-35.159468l208.612846,0l0,-51.801617l-208.612846,0l0,51.801617zm226.075382,-121.182968l-243.537918,0c-9.727453,0.234396 -17.814131,-7.383488 -18.048527,-17.110941s7.383488,-17.814131 17.110941,-18.048527l244.475504,0c9.727453,-0.234396 17.814131,7.383488 18.048527,17.110941c0.234396,9.727453 -7.383488,17.814131 -17.110941,18.048527l-0.937586,0z" class="st0" id="路径_5113"/>
	</g>
</svg>
