<svg width="520" height="520" xmlns="http://www.w3.org/2000/svg">
	<style type="text/css">.st0{fill:#FFFFFF;}</style>

	<g>
		<title>background</title>
		<rect fill="none" id="canvas_background" height="522" width="522" y="-1" x="-1"/>
	</g>
	<g>
		<title>Layer 1</title>
		<g stroke="null" id="组_952">
			<path stroke="null" d="m339.011582,373.478467c1.102204,14.328658 13.698827,25.193245 28.027485,24.09104c12.911538,-0.944747 22.988836,-11.179502 24.09104,-24.09104c-0.314916,-14.328658 -11.809334,-25.823076 -26.137992,-25.980534c-13.856285,-0.472373 -25.50816,10.549671 -25.980534,24.405956c0,0.157458 0,0.157458 0,0.314916l0,1.259662z" class="st0" id="路径_4692"/>
			<path stroke="null" d="m470.803744,307.97603c-3.149156,-14.643574 -17.635271,-23.776125 -32.278845,-20.626969c0,0 0,0 0,0l-2.676782,0.787289l-23.303752,-32.436303c-13.226454,-18.737476 -34.79817,-29.759521 -57.787006,-29.602063l-50.229032,0c-8.817636,0 -16.533067,6.298311 -18.265103,14.958489c-1.574578,9.447467 4.881191,18.580018 14.328658,20.154596c0,0 0.157458,0 0.157458,0l54.008019,0c11.651876,0 22.516463,5.983396 28.657316,15.745778l45.347841,65.502437c4.093902,5.983396 6.298311,13.068996 6.298311,20.312054l0,96.049246c0,7.243058 -5.825938,13.068996 -13.068996,13.068996c-7.243058,0 -13.068996,-5.825938 -13.068996,-13.068996l0,-29.916978c0,-6.298311 -5.038649,-11.33696 -11.33696,-11.494418l-127.855718,0c-9.132551,0 -17.00544,6.613227 -18.265103,15.745778c-1.732036,9.447467 4.566276,18.42256 14.013742,20.154596c0.157458,0 0.157458,0 0.314916,0l108.173495,0l0,2.519324c-0.472373,25.50816 18.580018,47.079876 43.930721,49.914117c26.452907,2.519324 49.914117,-17.00544 52.433441,-43.615805c0,0 0,-0.157458 0,-0.157458c0,-1.259662 0,-2.676782 0,-3.936445l0,-96.206704c-0.157458,-10.549671 -2.361867,-21.099343 -6.770685,-30.704267c4.881191,-6.613227 7.400516,-14.801031 7.243058,-23.146294z" class="st0" id="路径_4693"/>
			<path stroke="null" d="m251.307598,373.478467c1.102204,14.328658 13.698827,25.193245 28.027485,24.09104c12.911538,-0.944747 22.988836,-11.179502 24.09104,-24.09104c-0.157458,-14.328658 -11.651876,-25.823076 -25.980534,-25.980534c-14.1712,-0.314916 -25.823076,11.022045 -26.137992,25.193245c0,0 0,0.157458 0,0.157458l0,0.629831z" class="st0" id="路径_4694"/>
			<path stroke="null" d="m154.62852,128.631618c28.972232,0 52.590899,-23.618667 52.590899,-52.590899s-23.618667,-52.590899 -52.590899,-52.590899s-52.590899,23.618667 -52.590899,52.590899l0,0c0,28.972232 23.461209,52.590899 52.590899,52.590899zm0,-69.753797c9.762382,-0.157458 17.792729,7.872889 17.950187,17.635271s-7.872889,17.792729 -17.635271,17.950187s-17.792729,-7.872889 -17.950187,-17.635271c0,-0.157458 0,-0.157458 0,-0.314916c0.314916,-9.604925 8.030347,-17.320356 17.635271,-17.635271zm105.496713,122.187238c-0.157458,-19.209849 -15.745778,-34.79817 -34.955627,-34.79817l-143.444038,0c-19.052391,1.732036 -33.223592,18.737476 -31.491556,37.789867l0,0l10.392214,104.551966c1.41712,15.430863 12.911538,27.870027 28.184943,30.704267l10.392214,151.789301c1.732036,17.950187 16.847983,31.649014 34.955627,31.491556l40.309192,0c17.950187,0 33.066134,-13.541369 34.955627,-31.491556l10.392214,-151.789301c15.273405,-2.676782 26.767823,-15.273405 28.184943,-30.704267l10.392214,-104.551966c1.259662,-0.787289 1.889493,-2.204409 1.574578,-3.621529l0.157458,0.629831zm-45.347841,105.02434l-16.690525,3.621529c-5.66848,1.102204 -9.91984,5.825938 -10.549671,11.494418l-12.596622,168.479825l-40.151734,0l-12.596622,-168.479825c0,-5.983396 -4.408818,-10.864587 -10.392214,-11.494418l-16.690525,-3.621529l-10.549671,-104.551966l140.452341,0l-10.234756,104.551966z" class="st0" id="路径_4695"/>
		</g>
	</g>
</svg>
