
<svg width="420" height="400" xmlns="http://www.w3.org/2000/svg">
	<style type="text/css">.st0{fill:#FFFFFF;}</style>

	<g>
		<title>background</title>
		<rect fill="none" id="canvas_background" height="402" width="422" y="-1" x="-1"/>
	</g>
	<g>
		<title>Layer 1</title>
		<path stroke="null" d="m160.04427,179.780555c37.974553,-0.123699 68.527355,-30.923901 68.403655,-68.898441s-30.923888,-68.527355 -68.898429,-68.403655c-37.850853,0.123699 -68.403655,30.800201 -68.403655,68.651042c-0.123699,37.850853 30.552802,68.527355 68.403655,68.651054c0.123687,0 0.371086,0 0.494774,0zm-53.807577,10.637816c-26.718239,-17.688468 -42.798663,-47.622797 -42.551276,-79.659957c-1.855432,-53.189092 39.706285,-97.843199 92.895377,-99.69863c53.189104,-1.855444 97.843211,39.706273 99.698642,92.895377c0.123699,2.350217 0.123699,4.576735 0,6.926953c0.247387,32.03716 -15.833037,61.971489 -42.551276,79.659957c50.962574,21.151945 84.236692,71.00126 83.989293,126.169483l0,27.336725c-0.123687,22.759989 -18.678028,41.19063 -41.438017,41.19063l-192.841406,0c-22.759989,0 -41.31433,-18.430641 -41.438029,-41.19063l0,-27.336725c0,-55.168223 33.150419,-104.893851 83.989305,-126.169483l0.247387,0l0,-0.123699zm150.042743,167.360125c7.669125,0 13.853906,-6.18478 13.977605,-13.853906l0,-27.336725c-1.979131,-60.85823 -53.065405,-108.604726 -113.923634,-106.625595c-58.013226,1.979131 -104.646464,48.488669 -106.625595,106.625595l0,27.336725c0.123699,7.669125 6.30848,13.853906 13.977605,13.977593l192.594019,-0.123687zm28.326284,-308.249398c41.685416,0.247399 75.206921,34.263677 75.083221,75.825394c-0.123699,22.759989 -10.514129,44.28302 -28.326284,58.508012c38.469327,17.812168 63.084747,56.528881 62.713661,98.95647l0,27.336725c-0.123699,22.759977 -18.67804,41.190618 -41.438029,41.190618l-20.409772,0c-7.669125,0 -13.853893,-6.18478 -13.977593,-13.853906c0,-7.545426 6.18478,-13.730206 13.730206,-13.853906l20.657159,0c7.669125,0 13.853906,-6.184768 13.977605,-13.853893l0,-27.336725c-0.123699,-45.272592 -36.737582,-82.010174 -82.010174,-82.133874l-0.742173,0c-7.669125,-0.123687 -13.853906,-6.18478 -13.977593,-13.853906c-0.123699,-7.669125 6.061081,-13.853906 13.730206,-13.977593c0,0 0,0 0,0l0.989559,0c26.594552,-1.360658 47.128024,-23.996948 45.767366,-50.5915c-1.236946,-24.739108 -21.028245,-44.530407 -45.767366,-45.767366l-0.742173,0c-7.669125,0 -13.853906,-6.18478 -13.853906,-13.853906c0,-7.669125 6.18478,-13.853906 13.853906,-13.853906c0,0 0,0 0.123699,0l0.742173,0l0,1.113259l-0.123699,0z" class="st0" id="路径_4782"/>
	</g>
</svg>
