<svg t="1639827972672" class="icon" viewBox="0 0 1024 1024" version="1.1" xmlns="http://www.w3.org/2000/svg" p-id="4781" width="200" height="200"><path d="M636.40393 752.463307a25.767614 25.767614 0 0 1-4.744218 20.651301l-55.59727 73.767933c-74.171037 98.450268-219.62937 115.256582-331.164997 41.302601L168.338796 989.891246a25.302494 25.302494 0 0 1-22.79085 10.077586 23.504033 23.504033 0 0 1-19.348966-14.57374 25.302494 25.302494 0 0 1 3.410876-24.682335l76.651673-101.706104c-101.396024-86.822284-125.086105-231.009291-51.0391-329.30452l55.59727-73.736925a25.767614 25.767614 0 0 1 18.511751-10.263634 23.504033 23.504033 0 0 1 19.038887 7.379894c2.666684 2.88374 4.899257 5.76748 7.44191 8.682228a216.218495 216.218495 0 0 1 42.915014-122.543452l55.59727-73.798941a25.767614 25.767614 0 0 1 18.511751-10.263634 23.566048 23.566048 0 0 1 19.038887 7.379894c2.387613 2.542653 4.341114 5.116313 6.635703 7.689974a215.908415 215.908415 0 0 1 42.759975-120.279871l55.597269-73.798942a25.767614 25.767614 0 0 1 18.511751-10.263634 23.504033 23.504033 0 0 1 19.038887 7.379894 452.251075 452.251075 0 0 1 59.69032 79.752469c4.124058-8.186101 8.9613-16.000107 14.449709-23.348992C653.086211 70.505276 837.831628 7.8692 858.762 0.954425a24.682335 24.682335 0 0 1 21.612547 3.907003 24.682335 24.682335 0 0 1 9.736499 19.721061c-0.930239 22.015651-10.17061 216.869662-54.729047 276.001839a154.822737 154.822737 0 0 1-18.480743 20.310213c32.310293 8.372149 63.566315 20.248197 93.116899 35.411088a23.566048 23.566048 0 0 1 12.372176 16.248171 25.767614 25.767614 0 0 1-4.775226 20.6513l-55.566261 73.767933a215.908415 215.908415 0 0 1-103.59759 74.326077c3.100796 1.488382 6.07756 2.666684 9.209364 4.24809a23.566048 23.566048 0 0 1 12.341167 16.24817 25.798621 25.798621 0 0 1-4.775225 20.682309l-55.566262 73.736925a216.125471 216.125471 0 0 1-105.954194 75.03926c3.503899 1.705438 6.883767 3.03878 10.387666 4.806233 6.387639 3.286844 10.883793 9.302388 12.31016 16.40321z m-124.186874-258.730405a23.100929 23.100929 0 0 1-6.139576-3.131804c-4.930265-3.720955-9.488435-7.75199-14.108621-11.690001 0.093024 8.558197-0.248064 17.116393-1.085279 25.67459a228.621678 228.621678 0 0 1-3.565915 22.17069c6.511671-3.410875 13.20939-6.635703 20.341221-9.519443 7.969045-3.162812 16.124138-5.891512 24.372255-8.155093-5.085305-3.317852-10.201618-6.635703-15.131884-10.32565a23.100929 23.100929 0 0 1-4.682201-5.023289z m122.636476-158.698732c-0.651167-0.496127-1.36435-0.868223-2.015518-1.36435-0.682175-0.496127-1.240318-1.054271-1.860477-1.550398-0.372096 1.860478-0.837215 3.658939-1.240319 5.519416l5.085306-2.57366zM374.324664 687.966754a23.038913 23.038913 0 0 1-4.713209-5.02329 23.038913 23.038913 0 0 1-6.139576-3.131803c-5.271353-3.969019-10.108594-8.186101-15.007852-12.403184 0.15504 9.209364-0.279072 18.449735-1.240319 27.659099a228.621678 228.621678 0 0 1-3.565915 22.17069c6.511671-3.410875 13.240398-6.635703 20.341221-9.519443 8.589205-3.472891 17.364457-6.387639 26.263741-8.775252-5.333369-3.503899-10.728754-7.007799-15.969099-10.945809zM193.858346 558.880622c-57.023636 75.659419-37.829709 187.939237 41.240585 258.482343a217.179741 217.179741 0 0 0 63.318251-126.202392c6.108568-58.667057-16.589258-119.628704-67.504326-181.396557l-36.992494 49.05459-0.031008 0.062016z m143.566848-190.543905c-57.023636 75.690427-37.829709 187.970244 41.240584 258.482342a217.179741 217.179741 0 0 0 63.318252-126.140375c6.201592-58.667057-16.589258-119.659712-67.504326-181.458573l-36.992494 49.085598-0.031008 0.031008z m179.598095-238.296161L480.061803 179.095147c-57.054644 75.659419-37.829709 187.939237 41.240585 258.482342a217.179741 217.179741 0 0 0 63.287243-126.171383c6.07756-58.605042-16.620266-119.566688-67.535334-181.396558zM839.133962 59.96257c-72.992734 26.666844-169.117406 68.9617-191.629183 98.853372-20.868356 27.659099-25.891645 63.969418-13.209391 95.22544a90.698279 90.698279 0 0 0 74.72918 56.310453c33.519603 3.565915 67.039206-11.255889 87.876555-38.945996 22.542786-29.891672 36.651407-133.923373 42.201831-211.443269z m21.395492 328.870408c-73.674909-32.031221-138.66759-36.961487-193.551677-14.666764a215.877407 215.877407 0 0 0-103.349526 95.287456c89.613 56.65154 202.885073 44.155333 259.939716-31.535094l36.992495-49.085598z m-142.574594 189.241571c-73.705917-32.031221-138.698598-36.961487-193.582685-14.666765a215.908415 215.908415 0 0 0-103.349525 95.318465c89.613 56.620532 202.885073 44.124325 259.939716-31.566102l37.023502-49.147614-0.031008 0.062016z m-143.566847 190.512897c-73.674909-32.031221-138.698598-36.961487-193.551677-14.666765a215.939423 215.939423 0 0 0-103.380534 95.318465c89.613 56.620532 202.885073 44.155333 259.939716-31.566102l36.992495-49.085598z" fill="#ffffff" opacity=".699" p-id="4782"></path></svg>
